<svg width="138" height="50" viewBox="0 0 138 50" fill="none" xmlns="http://www.w3.org/2000/svg">
    <path d="M14.7858 31.2084C18.0737 31.2084 20.694 28.4345 20.694 24.3281C20.9482 21.1044 18.543 18.2858 15.3194 18.0288C15.1434 18.0148 14.9646 18.0092 14.7858 18.012C11.3499 18.012 9.55086 21.043 9.55086 24.6884C9.54807 28.8479 12.0119 31.2084 14.7858 31.2084ZM29.6247 35.1611C29.6247 46.1478 24.2892 49.6899 13.5036 49.6899C10.0285 49.6983 6.57302 49.1285 3.28512 47.9971L3.74604 40.7034C6.51995 42.2035 9.63187 42.9633 12.7857 42.913C18.1268 42.913 21.0013 40.3989 21.0013 35.1611V33.7197H20.8979C18.8866 36.6864 15.4926 38.4127 11.9113 38.2898C4.56732 38.2898 0 32.7476 0 24.8337C0 16.8723 3.74604 10.9194 12.065 10.9194C15.8585 10.9502 19.3364 13.0341 21.1521 16.3639H21.2583V11.5424H29.6247V35.1583V35.1611Z" fill="white"/>
    <path d="M66.8867 38.2592H77.1695L86.8376 11.6738H77.8567L72.4038 30.6135H72.3032L66.8923 11.6738H57.199L66.8867 38.2592Z" fill="white"/>
    <path d="M51.1931 24.9736C51.1931 20.9957 49.4584 17.4759 45.2235 17.4759C40.9886 17.4759 39.2566 20.9957 39.2566 24.9736C39.2566 28.9012 40.9914 32.4209 45.2235 32.4209C49.4556 32.4209 51.1931 28.9012 51.1931 24.9736ZM29.77 24.9736C29.77 16.149 36.4492 11.0537 45.2235 11.0537C53.9977 11.0537 60.6769 16.1546 60.6769 24.9736C60.6769 33.7478 53.9977 38.8459 45.2235 38.8459C36.4492 38.8459 29.77 33.7478 29.77 24.9736Z" fill="white"/>
    <path d="M87.8769 34.5017C87.8769 36.9097 85.9242 38.8595 83.5163 38.8595C81.1083 38.8595 79.1584 36.9069 79.1584 34.4989C79.1584 32.0937 81.1083 30.1439 83.5163 30.1411C85.9214 30.1383 87.8741 32.0882 87.8769 34.4933C87.8769 34.4961 87.8769 34.4989 87.8769 34.5017Z" fill="white"/>
    <path d="M103.503 18.1128C100.137 18.1128 97.8913 21.0683 97.8913 25.049C97.8913 28.9263 100.445 31.8371 103.503 31.8371C106.973 31.8371 109.065 28.9263 109.065 24.6914C109.065 21.1745 107.076 18.1128 103.503 18.1128ZM88.7092 0H97.9472V15.1043H98.0505C100.26 12.3555 103.665 10.8526 107.185 11.0761C114.532 11.0761 118.557 18.0625 118.557 24.4931C118.557 32.3483 114.325 38.8822 106.414 38.8822C102.587 39.0303 99.0199 36.938 97.2823 33.5244H97.179V38.2733H88.7036V0.00279347H88.7092V0Z" fill="white"/>
    <path d="M137.533 19.0317C136.517 18.7775 135.469 18.6741 134.422 18.7272C130.136 18.7272 127.742 21.8391 127.742 27.0433V38.2703H118.555V11.6737H126.93V16.5734H127.033C128.192 13.2352 131.357 11.0172 134.888 11.0647C135.933 11.0815 136.972 11.1848 138 11.3692L137.533 19.0317Z" fill="white"/>
</svg>
