<!-- sprite.svg -->

<svg xmlns="http://www.w3.org/2000/svg" xmlns:xlink="http://www.w3.org/1999/xlink">
    <symbol  id="check" viewBox="0 0 43 33">
        <path d="M13.5092 25.5683L3.43167 15.4908L0 18.8983L13.5092 32.4075L42.5092 3.4075L39.1017 0L13.5092 25.5683Z" fill="#5B612A"/>
    </symbol>
    <symbol id="info" viewBox="0 0 20 20">
        <path d="M9 5H11V7H9V5ZM9 9H11V15H9V9ZM10 0C4.48 0 0 4.48 0 10C0 15.52 4.48 20 10 20C15.52 20 20 15.52 20 10C20 4.48 15.52 0 10 0ZM10 18C5.59 18 2 14.41 2 10C2 5.59 5.59 2 10 2C14.41 2 18 5.59 18 10C18 14.41 14.41 18 10 18Z" fill="#2C1E1C"/>
    </symbol>
    <symbol id="leaf" viewBox="0 0 16 16">
    <symbol id="loupe" viewBox="0 0 176.292 176.292">
        <path d="M24.027,46.333c-4.32,16.125-2.103,32.968,6.244,47.426c11.132,19.281,31.892,31.259,54.178,31.259
            c8.411,0,16.745-1.729,24.474-5.03l32.507,56.303l12.99-7.5l-32.508-56.305c11.174-8.353,19.19-20.117,22.856-33.802
            c4.32-16.125,2.103-32.968-6.244-47.426C127.393,11.978,106.633,0,84.347,0C73.435,0,62.647,2.899,53.148,8.383
            C38.69,16.73,28.349,30.208,24.027,46.333z M84.347,15c16.944,0,32.727,9.104,41.188,23.759c6.344,10.988,8.029,23.789,4.745,36.044
            c-3.283,12.255-11.143,22.499-22.131,28.842c-7.222,4.169-15.416,6.373-23.699,6.373c-16.944,0-32.727-9.104-41.188-23.759
            c-6.344-10.988-8.029-23.788-4.745-36.043C41.801,37.96,49.66,27.717,60.648,21.373C67.87,17.204,76.064,15,84.347,15z"/>
    </symbol>

<path d="M8 16C7.06667 16 6.18767 15.854 5.363 15.562C4.53767 15.2707 3.78333 14.8583 3.1 14.325L1.7 15.7C1.51667 15.8833 1.28333 15.975 1 15.975C0.716667 15.975 0.483334 15.8833 0.3 15.7C0.116667 15.5167 0.0250001 15.2833 0.0250001 15C0.0250001 14.7167 0.116667 14.4833 0.3 14.3L1.675 12.925C1.14167 12.2417 0.729334 11.4833 0.438 10.65C0.146 9.81667 0 8.93333 0 8C0 5.76667 0.775 3.875 2.325 2.325C3.875 0.775 5.76667 0 8 0H16V8C16 10.2333 15.225 12.125 13.675 13.675C12.125 15.225 10.2333 16 8 16ZM8 14C9.66667 14 11.0833 13.4167 12.25 12.25C13.4167 11.0833 14 9.66667 14 8V2H8C6.33333 2 4.91667 2.58333 3.75 3.75C2.58333 4.91667 2 6.33333 2 8C2 8.65 2.1 9.27067 2.3 9.862C2.5 10.454 2.775 10.9917 3.125 11.475L8.3 6.3C8.48333 6.11667 8.71667 6.025 9 6.025C9.28333 6.025 9.51667 6.11667 9.7 6.3C9.9 6.5 10 6.73733 10 7.012C10 7.28733 9.9 7.525 9.7 7.725L4.525 12.9C5.00833 13.25 5.54567 13.5207 6.137 13.712C6.729 13.904 7.35 14 8 14Z" fill="#21240F"/>
</symbol>


</svg>